<?xml version="1.0" encoding="UTF-8" standalone="no"?>
<svg
   xmlns:dc="http://purl.org/dc/elements/1.1/"
   xmlns:cc="http://creativecommons.org/ns#"
   xmlns:rdf="http://www.w3.org/1999/02/22-rdf-syntax-ns#"
   xmlns:svg="http://www.w3.org/2000/svg"
   xmlns="http://www.w3.org/2000/svg"
   xmlns:xlink="http://www.w3.org/1999/xlink"
   xmlns:sodipodi="http://sodipodi.sourceforge.net/DTD/sodipodi-0.dtd"
   xmlns:inkscape="http://www.inkscape.org/namespaces/inkscape"
   width="82.367409mm"
   height="54.199272mm"
   viewBox="0 0 82.367409 54.199272"
   version="1.1"
   id="svg1690"
   inkscape:version="1.0.1 (c497b03c, 2020-09-10)"
   sodipodi:docname="McGuire_Group_square_logo.svg"
   inkscape:export-filename="/Users/melissahoffman/Desktop/McGuire Group Logo/McGuire_Group_square_logo.png"
   inkscape:export-xdpi="300"
   inkscape:export-ydpi="300">
  <defs
     id="defs1684">
    <linearGradient
       inkscape:collect="always"
       xlink:href="#linearGradient2401"
       id="linearGradient6375-2"
       gradientUnits="userSpaceOnUse"
       gradientTransform="matrix(0.3326996,0,0,0.3326996,-60.095047,227.32185)"
       x1="263.44275"
       y1="138.33897"
       x2="298.79019"
       y2="89.818817" />
    <linearGradient
       inkscape:collect="always"
       id="linearGradient2401">
      <stop
         style="stop-color:#a31f34;stop-opacity:1;"
         offset="0"
         id="stop2397" />
      <stop
         style="stop-color:#ffffff;stop-opacity:1"
         offset="1"
         id="stop2399" />
    </linearGradient>
  </defs>
  <sodipodi:namedview
     id="base"
     pagecolor="#ffffff"
     bordercolor="#666666"
     borderopacity="1.0"
     inkscape:pageopacity="0.0"
     inkscape:pageshadow="2"
     inkscape:zoom="1.4"
     inkscape:cx="151.18671"
     inkscape:cy="121.74665"
     inkscape:document-units="mm"
     inkscape:current-layer="g73"
     inkscape:document-rotation="0"
     showgrid="false"
     lock-margins="true"
     fit-margin-top="5"
     fit-margin-left="5"
     fit-margin-right="5"
     fit-margin-bottom="5"
     inkscape:window-width="1252"
     inkscape:window-height="787"
     inkscape:window-x="109"
     inkscape:window-y="23"
     inkscape:window-maximized="0"
     inkscape:snap-global="false" />
  <metadata
     id="metadata1687">
    <rdf:RDF>
      <cc:Work
         rdf:about="">
        <dc:format>image/svg+xml</dc:format>
        <dc:type
           rdf:resource="http://purl.org/dc/dcmitype/StillImage" />
        <dc:title />
      </cc:Work>
    </rdf:RDF>
  </metadata>
  <g
     inkscape:label="Layer 1"
     inkscape:groupmode="layer"
     id="layer1"
     transform="translate(-50.286529,-49.088835)">
    <g
       id="g73"
       transform="matrix(3.1059469,0,0,3.1059469,-2.4573628,-765.197)"
       inkscape:export-xdpi="300"
       inkscape:export-ydpi="300">
      <path
         id="path5692-0-7-9-5-0-2-3-3-6-0-7"
         style="display:inline;fill:url(#linearGradient6375-2);fill-opacity:1;stroke-width:0.0283693"
         d="m 22.313136,264.64753 c 0.634279,0.0707 1.231182,-0.18578 1.897552,-0.17734 0.767129,-0.0235 2.16458,-0.20533 3.343405,-0.38978 0.53708,-0.0218 0.926864,-0.1849 1.549545,-0.0836 0.625349,0.21556 1.278248,0.41779 1.939153,0.60313 0.730239,0.22489 1.460474,0.47378 2.200937,0.71112 0.834237,0.30178 1.698704,0.5569 2.544946,0.86179 0.975129,0.3049 0.940013,0.17734 1.668482,0.48624 -0.150676,-0.47646 0.420007,0.17867 0.52623,0.37912 0.218228,0.32934 0.492455,0.69156 0.81335,1.06935 0.371117,0.44268 0.751571,0.92447 1.175139,1.42715 0.04711,0.136 0.574676,0.64623 0.781794,0.95202 0.05778,0.0644 0.127112,0.14178 0.210226,0.22889 l 0.92713,1.66182 c -0.03158,0.0231 -0.068,0.0471 -0.09467,0.0689 -4.26e-4,0.005 -0.0023,0.009 -0.0023,0.0146 -0.01112,0.001 -0.01513,0.005 -0.02402,0.007 -1.268917,1.18624 -3.695638,2.74762 -5.711679,3.87476 -3.450749,2.33249 -1.200479,1.8027 -2.939181,0.90224 -1.053848,-0.44206 -2.137987,-1.0681 -3.094295,-1.40403 -4.200541,-1.55195 -8.68189,-3.65885 -11.433483,-5.18501 1.93062,-3.84276 2.318851,-4.38365 3.721416,-6.00902 z m 1.171668,0.62756 c -0.12089,0.0502 -0.205069,0.11334 -0.267693,0.18446 h -3.32e-4 c -0.578413,1.35691 -2.424914,4.16734 -1.749104,5.05388 l 4.4e-5,3.5e-4 c 3.97067,1.91192 7.470884,3.55434 11.13602,5.09122 v 0 c 0.07734,0.0324 0.154223,0.0613 0.22756,0.084 0.0098,0 0.01334,-9.9e-4 0.02402,-0.002 2.52139,-1.25248 0.757797,-0.3609 2.895176,-1.50315 3.049396,-1.80092 5.02011,-2.48628 4.466317,-3.19118 -0.816015,-0.96313 -1.429809,-1.83292 -2.092044,-2.63339 -0.485784,-0.492 -0.597345,-1.01335 -1.340024,-1.4298 -0.617792,-0.25646 -1.233805,-0.51202 -1.898706,-0.67113 -1.468037,-0.38312 -2.383167,-0.76135 -3.689422,-1.19603 -1.155133,-0.32222 -1.784035,-0.60134 -2.774279,-0.48845 -0.507563,0.076 -1.08509,0.13201 -1.594124,0.22534 -1.094155,0.11289 -2.166802,0.29733 -3.343181,0.476 z m 0.866243,0.48668 c 0.06373,-0.0271 0.147912,-0.0471 0.26085,-0.0564 1.019176,-0.27067 2.089021,-0.45689 3.108156,-0.61646 0.511566,-0.072 0.964466,-0.196 1.476474,-0.22533 0.09244,0.12311 0.0053,0.15955 0.413339,0.15911 0.107562,0.15156 -0.502226,0.10578 -0.246666,0.27245 -1.060912,0.15378 -2.144582,0.35023 -3.246559,0.60712 -0.687172,0.0911 -1.27945,0.40891 -2.050178,0.39823 0.09627,-0.11644 0.04595,-0.30222 0.147023,-0.43645 0.02994,-0.0396 0.07338,-0.0747 0.137561,-0.10222 z m -0.921844,3.7023 c 0.03592,-0.02 0.0964,-0.0263 0.189739,-0.0133 1.359094,0.53824 2.621832,1.19469 4.054443,1.74671 1.480919,0.70623 3.16229,1.25913 4.744992,1.94315 -0.384012,0.24801 0.240448,0.65424 0.04489,0.83735 -0.159117,0.18845 -0.443565,0.15645 -0.777353,0.0338 -0.554237,-0.20401 -1.225362,-0.65068 -1.712924,-0.74935 -1.356476,-0.59201 -2.710327,-1.14714 -3.957198,-1.75337 -1.154824,-0.4609 -2.130934,-1.01425 -3.183493,-1.49826 -0.01045,-0.016 -0.01161,-0.0311 -0.0062,-0.0458 0.01573,-0.0431 0.08685,-0.0809 0.12805,-0.11601 1.178379,0.58758 0.219472,-0.24489 0.475075,-0.38489 z m 12.628362,-2.25115 c 0.132893,-0.0978 0.811132,0.49201 0.480013,0.0791 -0.01644,-0.34045 0.443565,0.21645 0.386226,0.34801 0.398682,0.7089 0.913358,1.50714 1.731595,2.3836 0.435124,0.41913 0.887132,0.99647 0.775129,1.32315 -0.337341,-0.18623 -0.286227,0.14622 -0.507123,0.0569 -0.01464,-0.005 -0.03021,-0.0138 -0.04756,-0.024 -0.064,-0.0369 -0.145782,-0.10268 -0.255117,-0.21156 -0.388891,-0.49201 -0.802237,-0.98891 -1.127577,-1.45782 -0.275118,-0.41823 -0.572014,-0.8249 -0.763572,-1.20136 -0.218227,-0.4249 -0.475567,-0.81779 -0.692904,-1.20624 -0.0067,-0.0476 0.0016,-0.0756 0.02089,-0.0898 z"
         sodipodi:nodetypes="scccccccccccccccccccccsscccccccccccccccccsscccccccssssccccccccccsssccccccccccss" />
      <path
         id="path4035-0-0-5"
         style="font-style:normal;font-variant:normal;font-weight:normal;font-stretch:normal;font-size:20.80170000000000030px;line-height:1.25;font-family:STSong;-inkscape-font-specification:'STSong, Normal';font-variant-ligatures:normal;font-variant-caps:normal;font-variant-numeric:normal;font-variant-east-asian:normal;fill:#000000;fill-opacity:1;stroke:none;stroke-width:4.97159"
         d="M 70.570312 19.041016 L 70.570312 22.222656 L 88.666016 24.412109 L 88.666016 71.560547 L 88.865234 71.560547 L 88.865234 90.060547 C 88.892706 90.07256 88.919797 90.085638 88.947266 90.097656 C 90.621887 90.830327 92.295598 91.584683 93.964844 92.332031 C 94.187327 92.431923 94.410457 92.531097 94.632812 92.630859 L 94.632812 46.837891 C 94.567072 46.855115 94.499415 46.869614 94.433594 46.886719 L 94.433594 40.279297 C 94.50038 40.263184 94.566005 40.244589 94.632812 40.228516 L 94.632812 33.630859 C 94.567976 33.640679 94.498688 33.652228 94.433594 33.662109 L 94.433594 26.800781 L 114.37695 71.560547 L 114.57617 71.560547 L 131.04297 108.51562 C 132.08511 108.98012 133.14625 109.43131 134.20117 109.88672 C 135.32139 110.37011 136.44309 110.85165 137.57617 111.32617 C 138.51763 111.72072 139.46089 112.11444 140.41016 112.50391 C 141.6065 112.99435 142.81053 113.48088 144.01758 113.96484 C 144.90495 114.32091 145.7874 114.67983 146.67969 115.0332 C 146.69086 115.03763 146.70172 115.04245 146.71289 115.04688 C 148.48978 115.75005 150.27474 116.44945 152.06641 117.14648 L 118.17188 41.423828 C 118.11205 41.436111 118.05201 41.450582 117.99219 41.462891 L 115.54492 35.994141 C 115.60595 35.983586 115.6675 35.971466 115.72852 35.960938 L 113.54883 31.091797 C 113.48627 31.098686 113.42389 31.108308 113.36133 31.115234 L 110.36914 24.427734 C 110.43156 24.41928 110.49224 24.412774 110.55469 24.404297 L 108.1543 19.041016 C 108.10257 19.046993 108.01794 19.050753 107.96484 19.056641 L 107.95703 19.041016 C 104.52282 19.437493 98.053895 19.637198 88.566406 19.638672 C 78.821362 19.637182 72.882727 19.437864 70.769531 19.041016 L 70.769531 19.070312 C 70.710413 19.060419 70.624426 19.051168 70.570312 19.041016 z M 192.27344 19.041016 L 167.67188 79.449219 L 167.67188 79.9375 L 152.45703 117.29883 C 154.31723 118.02195 156.18958 118.75525 158.05859 119.47852 L 189.48438 41.759766 C 189.42615 41.740104 189.36877 41.718918 189.31055 41.699219 L 191.2168 36.982422 C 191.27491 37.002353 191.33305 37.02227 191.39062 37.042969 L 191.87695 35.841797 L 191.87695 128.2207 C 191.87695 132.06464 191.47901 134.65029 190.68359 135.97656 C 189.88816 137.30166 187.96526 138.29538 184.91602 138.95898 L 172.98438 141.3457 L 172.98438 144.52734 C 173.05839 144.52526 173.10983 144.52357 173.18359 144.52148 L 173.18359 144.52734 C 177.69116 144.40056 181.73489 144.26743 185.31445 144.12891 C 187.17048 144.05965 188.99351 144.0071 190.7832 143.97266 C 192.57289 143.93821 194.32925 143.92188 196.05273 143.92188 L 199.83203 143.92188 C 200.15898 143.92188 200.56643 143.92693 200.9043 143.92773 C 202.66293 143.93164 204.52786 143.94525 206.61133 143.97266 C 206.64555 143.97311 206.67077 143.9722 206.70508 143.97266 C 206.89168 143.97503 207.10783 143.97987 207.29688 143.98242 C 209.29637 144.01047 211.44185 144.04989 213.67969 144.0957 C 213.94934 144.10127 214.31303 144.11334 214.58594 144.11914 C 216.2392 143.22656 217.9105 142.32327 220.32812 141.03125 C 221.03879 140.61154 221.71547 140.22131 222.41211 139.81445 L 213.1543 137.96289 C 210.76786 137.43237 209.17622 136.50401 208.38086 135.17773 C 207.71815 133.7192 207.38672 130.93373 207.38672 126.82422 L 207.38672 47.232422 C 207.31921 47.214077 207.25678 47.196079 207.18945 47.177734 L 207.18945 42.382812 C 207.25532 42.404413 207.32085 42.425665 207.38672 42.447266 L 207.38672 36.541016 C 207.38672 32.697035 208.11591 29.980247 209.57422 28.388672 C 211.03256 26.798114 213.68462 25.604342 217.5293 24.808594 L 229.85938 22.222656 L 229.85938 19.041016 C 229.79433 19.045668 229.72532 19.048136 229.66016 19.052734 L 229.66016 19.041016 C 224.12099 19.436897 218.12167 19.636606 211.66406 19.638672 C 205.33226 19.636649 198.93566 19.437326 192.47266 19.041016 L 192.46875 19.050781 C 192.4035 19.046823 192.3387 19.045014 192.27344 19.041016 z M 88.865234 101.89062 L 88.865234 115.23633 C 90.800935 116.15142 92.710047 117.04608 94.632812 117.95117 L 94.632812 104.64844 C 94.603819 104.63489 94.575857 104.62098 94.546875 104.60742 C 92.629577 103.71045 90.736696 102.80527 88.865234 101.89062 z M 137.90039 123.91016 L 145.6875 141.38477 C 146.6792 141.82633 147.67256 142.27522 148.66406 142.71484 L 153.60938 130.48047 C 153.60734 130.47991 153.60555 130.47907 153.60352 130.47852 C 153.22981 130.3759 152.86358 130.28724 152.50586 130.21484 C 147.61759 128.08145 142.74741 125.99184 137.90039 123.91016 z M 88.542969 133.97656 C 88.333217 134.79373 87.918706 135.5283 87.275391 136.17188 C 86.612473 136.83489 85.552056 137.43229 84.09375 137.96289 C 82.767977 138.49295 80.845074 138.95712 78.326172 139.35547 L 67.388672 141.34375 L 67.388672 144.52734 C 77.86207 144.129 87.0748 143.92969 95.029297 143.92969 C 100.74583 143.92969 106.4632 144.03646 112.17969 144.24219 C 112.16458 144.23582 112.14987 144.22902 112.13477 144.22266 C 108.34122 142.62365 104.57112 141.01133 100.82617 139.38477 C 100.82164 139.3828 100.81703 139.38087 100.8125 139.37891 L 100.59766 139.35547 C 99.137113 139.20945 97.947631 138.66706 97.023438 137.73438 C 95.47173 137.05381 93.94098 136.36872 92.400391 135.68555 C 91.115706 135.11542 89.818066 134.54793 88.542969 133.97656 z "
         transform="matrix(0.08518605,0,0,0.08518605,16.981582,262.16992)" />
      <path
         d="m 41.534609,268.51736 q -0.346384,0.43964 -0.879277,0.65279 -0.532896,0.19984 -1.039143,0.19984 -0.626153,0 -1.132401,-0.21315 -0.49293,-0.22649 -0.852636,-0.59952 -0.346377,-0.37303 -0.532893,-0.86594 -0.186507,-0.49295 -0.186507,-1.02583 0,-0.62615 0.186507,-1.14571 0.186516,-0.51958 0.546214,-0.8926 0.37303,-0.37303 0.905931,-0.57286 0.546213,-0.21317 1.252299,-0.21317 0.732728,0 1.185687,0.22648 0.466286,0.21316 0.466286,0.55955 0,0.1865 -0.119899,0.33305 -0.119907,0.13323 -0.266451,0.14655 -0.186515,0.0133 -0.333061,-0.13322 -0.146543,-0.15988 -0.333058,-0.34638 -0.173189,-0.18652 -0.426314,-0.33306 -0.239806,-0.15987 -0.626149,-0.15987 -0.412994,0 -0.706084,0.21314 -0.293098,0.21316 -0.492931,0.54622 -0.186514,0.33306 -0.27977,0.75939 -0.07994,0.41298 -0.07994,0.85262 0,0.46629 0.146544,0.90593 0.15987,0.4263 0.43964,0.75936 0.27977,0.31975 0.666111,0.50625 0.399681,0.18652 0.879284,0.18652 0.532895,-0.0133 0.839309,-0.18652 0.306415,-0.17319 0.599509,-0.49293 z"
         style="font-style:normal;font-variant:normal;font-weight:normal;font-stretch:normal;font-size:50.9635px;line-height:1.25;font-family:STSong;-inkscape-font-specification:'STSong, Normal';font-variant-ligatures:normal;font-variant-caps:normal;font-variant-numeric:normal;font-variant-east-asian:normal;fill:#000000;fill-opacity:1;stroke:none;stroke-width:0.333059"
         id="path2481-7-0-4-4-4-9-5" />
    </g>
  </g>
</svg>
